<svg id="visual" viewBox="0 0 960 300" width="960" height="300" xmlns="http://www.w3.org/2000/svg" xmlns:xlink="http://www.w3.org/1999/xlink" version="1.1"><rect x="0" y="0" width="960" height="300" fill="#202731"></rect><path d="M0 106L13.3 102.3C26.7 98.7 53.3 91.3 80 83.7C106.7 76 133.3 68 160 72.3C186.7 76.7 213.3 93.3 240 102.7C266.7 112 293.3 114 320 117.7C346.7 121.3 373.3 126.7 400 114C426.7 101.3 453.3 70.7 480 71C506.7 71.3 533.3 102.7 560 113.3C586.7 124 613.3 114 640 112.5C666.7 111 693.3 118 720 107.5C746.7 97 773.3 69 800 67C826.7 65 853.3 89 880 99C906.7 109 933.3 105 946.7 103L960 101L960 0L946.7 0C933.3 0 906.7 0 880 0C853.3 0 826.7 0 800 0C773.3 0 746.7 0 720 0C693.3 0 666.7 0 640 0C613.3 0 586.7 0 560 0C533.3 0 506.7 0 480 0C453.3 0 426.7 0 400 0C373.3 0 346.7 0 320 0C293.3 0 266.7 0 240 0C213.3 0 186.7 0 160 0C133.3 0 106.7 0 80 0C53.3 0 26.7 0 13.3 0L0 0Z" fill="#fa7268"></path><path d="M0 54L13.3 58C26.7 62 53.3 70 80 76.8C106.7 83.7 133.3 89.3 160 79.5C186.7 69.7 213.3 44.3 240 38.5C266.7 32.7 293.3 46.3 320 48C346.7 49.7 373.3 39.3 400 35.5C426.7 31.7 453.3 34.3 480 34.5C506.7 34.7 533.3 32.3 560 40.8C586.7 49.3 613.3 68.7 640 67.2C666.7 65.7 693.3 43.3 720 34C746.7 24.7 773.3 28.3 800 30C826.7 31.7 853.3 31.3 880 41.7C906.7 52 933.3 73 946.7 83.5L960 94L960 0L946.7 0C933.3 0 906.7 0 880 0C853.3 0 826.7 0 800 0C773.3 0 746.7 0 720 0C693.3 0 666.7 0 640 0C613.3 0 586.7 0 560 0C533.3 0 506.7 0 480 0C453.3 0 426.7 0 400 0C373.3 0 346.7 0 320 0C293.3 0 266.7 0 240 0C213.3 0 186.7 0 160 0C133.3 0 106.7 0 80 0C53.3 0 26.7 0 13.3 0L0 0Z" fill="#f3665b"></path><path d="M0 28L13.3 35.3C26.7 42.7 53.3 57.3 80 59.8C106.7 62.3 133.3 52.7 160 48.7C186.7 44.7 213.3 46.3 240 46.2C266.7 46 293.3 44 320 49.8C346.7 55.7 373.3 69.3 400 66.7C426.7 64 453.3 45 480 36.7C506.7 28.3 533.3 30.7 560 39.7C586.7 48.7 613.3 64.3 640 69.8C666.7 75.3 693.3 70.7 720 71.2C746.7 71.7 773.3 77.3 800 74.7C826.7 72 853.3 61 880 57.2C906.7 53.3 933.3 56.7 946.7 58.3L960 60L960 0L946.7 0C933.3 0 906.7 0 880 0C853.3 0 826.7 0 800 0C773.3 0 746.7 0 720 0C693.3 0 666.7 0 640 0C613.3 0 586.7 0 560 0C533.3 0 506.7 0 480 0C453.3 0 426.7 0 400 0C373.3 0 346.7 0 320 0C293.3 0 266.7 0 240 0C213.3 0 186.7 0 160 0C133.3 0 106.7 0 80 0C53.3 0 26.7 0 13.3 0L0 0Z" fill="#ec594d"></path><path d="M0 25L13.3 31C26.7 37 53.3 49 80 54.8C106.7 60.7 133.3 60.3 160 59.2C186.7 58 213.3 56 240 50.8C266.7 45.7 293.3 37.3 320 31.7C346.7 26 373.3 23 400 25.5C426.7 28 453.3 36 480 34.8C506.7 33.7 533.3 23.3 560 20.7C586.7 18 613.3 23 640 26.2C666.7 29.3 693.3 30.7 720 29.5C746.7 28.3 773.3 24.7 800 22C826.7 19.3 853.3 17.7 880 22.8C906.7 28 933.3 40 946.7 46L960 52L960 0L946.7 0C933.3 0 906.7 0 880 0C853.3 0 826.7 0 800 0C773.3 0 746.7 0 720 0C693.3 0 666.7 0 640 0C613.3 0 586.7 0 560 0C533.3 0 506.7 0 480 0C453.3 0 426.7 0 400 0C373.3 0 346.7 0 320 0C293.3 0 266.7 0 240 0C213.3 0 186.7 0 160 0C133.3 0 106.7 0 80 0C53.3 0 26.7 0 13.3 0L0 0Z" fill="#e54c3f"></path><path d="M0 42L13.3 41.8C26.7 41.7 53.3 41.3 80 41.2C106.7 41 133.3 41 160 35.8C186.7 30.7 213.3 20.3 240 20.2C266.7 20 293.3 30 320 33.2C346.7 36.3 373.3 32.7 400 31.8C426.7 31 453.3 33 480 31.2C506.7 29.3 533.3 23.7 560 19.8C586.7 16 613.3 14 640 15.8C666.7 17.7 693.3 23.3 720 28.7C746.7 34 773.3 39 800 36.8C826.7 34.7 853.3 25.3 880 24.5C906.7 23.7 933.3 31.3 946.7 35.2L960 39L960 0L946.7 0C933.3 0 906.7 0 880 0C853.3 0 826.7 0 800 0C773.3 0 746.7 0 720 0C693.3 0 666.7 0 640 0C613.3 0 586.7 0 560 0C533.3 0 506.7 0 480 0C453.3 0 426.7 0 400 0C373.3 0 346.7 0 320 0C293.3 0 266.7 0 240 0C213.3 0 186.7 0 160 0C133.3 0 106.7 0 80 0C53.3 0 26.7 0 13.3 0L0 0Z" fill="#dd3f31"></path></svg>