<svg id="visual" viewBox="0 0 960 300" width="960" height="300" xmlns="http://www.w3.org/2000/svg" xmlns:xlink="http://www.w3.org/1999/xlink" version="1.1"><rect x="0" y="0" width="960" height="300" fill="#202731"></rect><path d="M0 134L13.3 129.3C26.7 124.7 53.3 115.3 80 112.8C106.7 110.3 133.3 114.7 160 118.2C186.7 121.7 213.3 124.3 240 121.3C266.7 118.3 293.3 109.7 320 109C346.7 108.3 373.3 115.7 400 113.8C426.7 112 453.3 101 480 98.2C506.7 95.3 533.3 100.7 560 102.8C586.7 105 613.3 104 640 102.5C666.7 101 693.3 99 720 101C746.7 103 773.3 109 800 109.7C826.7 110.3 853.3 105.7 880 101.3C906.7 97 933.3 93 946.7 91L960 89L960 0L946.7 0C933.3 0 906.7 0 880 0C853.3 0 826.7 0 800 0C773.3 0 746.7 0 720 0C693.3 0 666.7 0 640 0C613.3 0 586.7 0 560 0C533.3 0 506.7 0 480 0C453.3 0 426.7 0 400 0C373.3 0 346.7 0 320 0C293.3 0 266.7 0 240 0C213.3 0 186.7 0 160 0C133.3 0 106.7 0 80 0C53.3 0 26.7 0 13.3 0L0 0Z" fill="#6600ff"></path><path d="M0 75L13.3 74.5C26.7 74 53.3 73 80 76.8C106.7 80.7 133.3 89.3 160 88.8C186.7 88.3 213.3 78.7 240 71C266.7 63.3 293.3 57.7 320 56.8C346.7 56 373.3 60 400 66.8C426.7 73.7 453.3 83.3 480 89.2C506.7 95 533.3 97 560 93.5C586.7 90 613.3 81 640 80.7C666.7 80.3 693.3 88.7 720 92.2C746.7 95.7 773.3 94.3 800 91.7C826.7 89 853.3 85 880 76.8C906.7 68.7 933.3 56.3 946.7 50.2L960 44L960 0L946.7 0C933.3 0 906.7 0 880 0C853.3 0 826.7 0 800 0C773.3 0 746.7 0 720 0C693.3 0 666.7 0 640 0C613.3 0 586.7 0 560 0C533.3 0 506.7 0 480 0C453.3 0 426.7 0 400 0C373.3 0 346.7 0 320 0C293.3 0 266.7 0 240 0C213.3 0 186.7 0 160 0C133.3 0 106.7 0 80 0C53.3 0 26.7 0 13.3 0L0 0Z" fill="#e800a9"></path><path d="M0 8L13.3 11.5C26.7 15 53.3 22 80 29C106.7 36 133.3 43 160 47.5C186.7 52 213.3 54 240 48C266.7 42 293.3 28 320 28.5C346.7 29 373.3 44 400 43.8C426.7 43.7 453.3 28.3 480 20.3C506.7 12.3 533.3 11.7 560 11.8C586.7 12 613.3 13 640 15.7C666.7 18.3 693.3 22.7 720 22.8C746.7 23 773.3 19 800 16.3C826.7 13.7 853.3 12.3 880 17.7C906.7 23 933.3 35 946.7 41L960 47L960 0L946.7 0C933.3 0 906.7 0 880 0C853.3 0 826.7 0 800 0C773.3 0 746.7 0 720 0C693.3 0 666.7 0 640 0C613.3 0 586.7 0 560 0C533.3 0 506.7 0 480 0C453.3 0 426.7 0 400 0C373.3 0 346.7 0 320 0C293.3 0 266.7 0 240 0C213.3 0 186.7 0 160 0C133.3 0 106.7 0 80 0C53.3 0 26.7 0 13.3 0L0 0Z" fill="#ff0066"></path></svg>